<svg xmlns="http://www.w3.org/2000/svg" fill="none" viewBox="0 0 102 72"><path fill="#1D1D1D" fill-rule="evenodd" d="M18.168.779H.782v69.326h17.386v-3.302c3.108 2.885 7.296 4.418 12.143 4.418 8.097 0 14.812-4.273 18.767-11.135v10.019h17.386v-3.302c3.108 2.885 7.296 4.418 12.143 4.418 13.165 0 22.616-11.246 22.616-26.52 0-15.22-9.452-26.426-22.616-26.426-4.825 0-9.012 1.546-12.143 4.451V.78H49.078v28.586C45.125 22.53 38.408 18.27 30.31 18.27c-4.825 0-9.012 1.546-12.143 4.451V.78Zm73.874.276H78.17v3.159h3.45v9h3.591v-9h2.248v9h3.538l-.105-5.27 1.554 5.275h3.52l1.533-5.205-.09 5.2h3.536V1.055h-4.552L94.218 8.47l-2.176-7.414ZM26.852 33.17c2.555-.001 4.684 1.127 6.188 3.117 1.512 2 2.406 4.895 2.406 8.414 0 3.55-.894 6.468-2.407 8.486-1.505 2.006-3.634 3.143-6.187 3.143-2.582 0-4.735-1.139-6.255-3.145-1.53-2.018-2.433-4.936-2.433-8.484v-.523c.089-3.412 1.013-6.17 2.526-8.065 1.505-1.885 3.614-2.943 6.162-2.943Zm1.132-.426 4.7 2.364c-1.27-1.3-2.864-2.125-4.7-2.364Zm47.165.426c2.554-.001 4.683 1.127 6.187 3.117 1.512 2 2.407 4.895 2.407 8.414 0 3.55-.895 6.468-2.408 8.486-1.505 2.006-3.634 3.143-6.187 3.143-2.582 0-4.735-1.139-6.255-3.145-1.53-2.018-2.433-4.936-2.433-8.484v-.523c.087-3.412 1.01-6.17 2.525-8.065 1.505-1.885 3.615-2.943 6.164-2.943Zm1.131-.426 4.7 2.364c-1.27-1.3-2.864-2.125-4.7-2.364Z" clip-rule="evenodd"/></svg>