<svg width="1em" height="1em" viewBox="0 0 331.3 52.5" class="logo-header" fill="currentColor" xmlns="http://www.w3.org/2000/svg">
  <g>
    <path class="st0" d="M225.7,18.8c1.9,0,3.6,0.7,5,2.1s2.1,3.1,2.1,5.1s-0.7,3.7-2,5c-1.4,1.4-3,2.1-5,2.1s-3.7-0.7-5.1-2.1
      c-1.3-1.4-2-3.1-2-5c0-1.3,0.3-2.5,0.9-3.6c0.6-1.1,1.5-2,2.6-2.6C223.3,19.1,224.5,18.8,225.7,18.8z M225.7,21.3
      c-1.3,0-2.3,0.4-3.2,1.3s-1.3,2-1.3,3.3c0,1.5,0.5,2.7,1.6,3.6c0.8,0.7,1.8,1,2.9,1c1.2,0,2.3-0.4,3.1-1.3s1.3-2,1.3-3.3
      s-0.4-2.4-1.3-3.3C228,21.7,226.9,21.3,225.7,21.3z"/>
    <path class="st0" d="M237.3,19.1h2.7c1.5,0,2.6,0.1,3.2,0.4c0.6,0.3,1.1,0.7,1.5,1.3s0.6,1.4,0.6,2.2c0,0.9-0.2,1.6-0.6,2.2
      s-1.1,1.1-1.9,1.4l3.2,6h-2.8l-3.1-5.7h-0.2v5.7h-2.6L237.3,19.1L237.3,19.1z M239.8,24.4h0.8c0.8,0,1.4-0.1,1.7-0.3
      c0.3-0.2,0.5-0.6,0.5-1.1c0-0.3-0.1-0.6-0.2-0.8c-0.2-0.2-0.4-0.4-0.6-0.5c-0.3-0.1-0.7-0.1-1.4-0.1h-0.7L239.8,24.4L239.8,24.4z"
      />
    <path class="st0" d="M262.5,21.3l-1.8,1.8c-1.2-1.2-2.5-1.8-4-1.8c-1.3,0-2.5,0.4-3.4,1.3s-1.4,2-1.4,3.2c0,1.3,0.5,2.4,1.4,3.3
      s2.1,1.4,3.5,1.4c0.9,0,1.6-0.2,2.3-0.6c0.6-0.4,1.1-1,1.5-1.8h-3.9v-2.4h6.8v0.6c0,1.2-0.3,2.3-0.9,3.4s-1.4,1.9-2.4,2.4
      c-1,0.6-2.1,0.8-3.4,0.8c-1.4,0-2.7-0.3-3.8-0.9s-2-1.5-2.6-2.6s-1-2.4-1-3.7c0-1.8,0.6-3.4,1.8-4.7c1.4-1.6,3.2-2.4,5.5-2.4
      c1.2,0,2.3,0.2,3.3,0.7C260.8,19.8,261.6,20.4,262.5,21.3z"/>
    <path class="st0" d="M271.8,19.1h2.6l5.2,13.6H277l-1.1-2.8h-5.5l-1.1,2.8h-2.7L271.8,19.1z M273.2,22.7l-1.8,4.7h3.6L273.2,22.7z"
      />
    <path class="st0" d="M283.6,19.1h2.5l5.8,8.9v-8.9h2.6v13.6H292l-5.8-8.9v8.9h-2.6V19.1z"/>
    <path class="st0" d="M299.3,19.1h2.6v13.6h-2.6V19.1z"/>
    <path class="st0" d="M319.1,21.5l-1.8,1.7c-1.2-1.3-2.6-1.9-4.1-1.9c-1.3,0-2.4,0.4-3.3,1.3s-1.3,2-1.3,3.3c0,0.9,0.2,1.7,0.6,2.4
      s1,1.3,1.7,1.7s1.5,0.6,2.4,0.6c0.7,0,1.4-0.1,2.1-0.4s1.3-0.8,2-1.5l1.8,1.8c-1,1-2,1.7-2.8,2c-0.9,0.4-1.9,0.6-3.1,0.6
      c-2.1,0-3.8-0.7-5.2-2c-1.3-1.3-2-3.1-2-5.1c0-1.4,0.3-2.6,0.9-3.6s1.5-1.9,2.6-2.5s2.4-1,3.7-1c1.1,0,2.2,0.2,3.2,0.7
      S318.3,20.6,319.1,21.5z"/>
    <path class="st0" d="M330.4,20.9l-1.9,1.7c-0.7-0.9-1.4-1.4-2.1-1.4c-0.3,0-0.6,0.1-0.8,0.3c-0.2,0.2-0.3,0.4-0.3,0.6
      s0.1,0.4,0.2,0.6c0.2,0.3,0.8,0.9,1.9,1.7c1,0.8,1.6,1.3,1.8,1.6c0.5,0.5,0.9,1,1.1,1.5s0.3,1,0.3,1.6c0,1.1-0.4,2-1.2,2.8
      c-0.8,0.7-1.8,1.1-3,1.1c-1,0-1.8-0.2-2.5-0.7s-1.3-1.2-1.8-2.2l2.2-1.3c0.7,1.2,1.4,1.8,2.3,1.8c0.4,0,0.8-0.1,1.1-0.4
      c0.3-0.3,0.5-0.6,0.5-0.9s-0.1-0.6-0.3-0.9c-0.2-0.3-0.7-0.8-1.5-1.4c-1.5-1.2-2.4-2.1-2.9-2.8s-0.6-1.3-0.6-2
      c0-0.9,0.4-1.7,1.1-2.4s1.6-1,2.7-1c0.7,0,1.3,0.2,1.9,0.5C329,19.5,329.7,20.1,330.4,20.9z"/>
  </g>
  <g>
    <path class="st0" d="M13.8,21.5L12,23.2c-1.2-1.3-2.6-1.9-4.1-1.9c-1.3,0-2.4,0.4-3.3,1.3s-1.3,2-1.3,3.3c0,0.9,0.2,1.7,0.6,2.4
      s0.9,1.3,1.7,1.7c0.7,0.4,1.5,0.6,2.4,0.6c0.8,0,1.4-0.1,2.1-0.4s1.3-0.8,2-1.5l1.8,1.8c-1,1-2,1.7-2.8,2c-0.9,0.4-1.9,0.6-3.1,0.6
      c-2.1,0-3.8-0.7-5.2-2c-1.3-1.3-2-3.1-2-5.1c0-1.4,0.3-2.6,0.9-3.6s1.5-1.9,2.6-2.5s2.4-1,3.7-1c1.1,0,2.2,0.2,3.2,0.7
      C12.1,19.9,13,20.6,13.8,21.5z"/>
    <path class="st0" d="M26.7,18.8c1.9,0,3.6,0.7,5,2.1c1.4,1.4,2.1,3.1,2.1,5.1s-0.7,3.7-2,5c-1.4,1.4-3,2.1-5,2.1s-3.7-0.7-5.1-2.1
      c-1.3-1.4-2-3.1-2-5c0-1.3,0.3-2.5,0.9-3.6s1.5-2,2.6-2.6C24.2,19.1,25.4,18.8,26.7,18.8z M26.6,21.3c-1.3,0-2.3,0.4-3.2,1.3
      c-0.9,0.9-1.3,2-1.3,3.3c0,1.5,0.5,2.7,1.6,3.6c0.8,0.7,1.8,1,2.9,1c1.2,0,2.3-0.4,3.1-1.3s1.3-2,1.3-3.3s-0.4-2.4-1.3-3.3
      C28.9,21.7,27.9,21.3,26.6,21.3z"/>
    <path class="st0" d="M40.3,19.1h2.6v11.1h3.8v2.5h-6.3L40.3,19.1L40.3,19.1z"/>
    <path class="st0" d="M59.2,18.8c1.9,0,3.6,0.7,5,2.1c1.4,1.4,2.1,3.1,2.1,5.1s-0.7,3.7-2,5c-1.4,1.4-3,2.1-5,2.1s-3.7-0.7-5.1-2.1
      c-1.3-1.4-2-3.1-2-5c0-1.3,0.3-2.5,0.9-3.6s1.5-2,2.6-2.6C56.8,19.1,58,18.8,59.2,18.8z M59.2,21.3c-1.3,0-2.3,0.4-3.2,1.3
      s-1.3,2-1.3,3.3c0,1.5,0.5,2.7,1.6,3.6c0.8,0.7,1.8,1,2.9,1c1.2,0,2.3-0.4,3.1-1.3s1.3-2,1.3-3.3s-0.4-2.4-1.3-3.3
      C61.5,21.7,60.5,21.3,59.2,21.3z"/>
    <path class="st0" d="M73.1,19.1h2.7c1.5,0,2.6,0.1,3.2,0.4s1.1,0.7,1.5,1.3s0.6,1.4,0.6,2.2c0,0.9-0.2,1.6-0.6,2.2
      s-1.1,1.1-1.9,1.4l3.2,6H79l-3.1-5.7h-0.2v5.7h-2.6C73.1,32.6,73.1,19.1,73.1,19.1z M75.7,24.4h0.8c0.8,0,1.4-0.1,1.7-0.3
      s0.5-0.6,0.5-1.1c0-0.3-0.1-0.6-0.2-0.8c-0.2-0.2-0.4-0.4-0.6-0.5c-0.3-0.1-0.7-0.1-1.4-0.1h-0.7v2.8H75.7z"/>
    <path class="st0" d="M88.1,19.1h7.4v2.5h-4.8v2.5h4.8v2.5h-4.8v3.6h4.8v2.5h-7.4V19.1z"/>
    <path class="st0" d="M102.1,19.1h3.1c2,0,3.4,0.2,4.4,0.7s1.7,1.3,2.4,2.4s0.9,2.4,0.9,3.9c0,1-0.2,2-0.5,2.9s-0.8,1.6-1.4,2.2
      s-1.3,1-2,1.2s-1.9,0.3-3.7,0.3h-3.1L102.1,19.1L102.1,19.1z M104.7,21.6v8.6h1.2c1.2,0,2-0.1,2.6-0.4s1-0.7,1.3-1.4
      c0.3-0.6,0.5-1.4,0.5-2.4c0-1.4-0.4-2.6-1.2-3.4c-0.7-0.7-1.9-1.1-3.5-1.1L104.7,21.6L104.7,21.6L104.7,21.6z"/>
  </g>
</svg>
