<svg width="318" height="60" viewBox="0 0 318 60" fill="none" xmlns="http://www.w3.org/2000/svg">
<g clip-path="url(#clip0_2890_119278)">
<path d="M124.226 29.5541C124.226 34.1488 127.359 39.0562 136.156 39.0562C141.446 39.0562 145.059 37.4088 147.197 34.0156L147.584 33.3758L144.633 32.1598L144.445 32.4493C142.838 35.0203 140.122 36.326 136.375 36.326C130.941 36.326 127.57 33.8361 127.57 29.8292C127.57 25.1969 130.619 22.6346 136.156 22.6346C138.961 22.6346 142.622 23.2918 144.179 26.4244L144.35 26.7748L147.259 25.6167L147.037 25.1824C145.374 21.9398 141.295 20 136.131 20C128.787 20 124.226 23.6653 124.226 29.5541Z" fill="black"/>
<path d="M22.4889 20.4277H10.2588V38.6327H13.5435V31.2384H22.4889C27.9392 31.2384 30.7022 29.4173 30.7022 25.8215C30.7022 22.2256 27.9392 20.4277 22.4889 20.4277ZM21.855 28.5111H13.5435V23.155H21.855C26.5675 23.155 27.5325 24.232 27.5325 25.8475C27.5325 27.4631 26.5675 28.5111 21.855 28.5111Z" fill="black"/>
<path d="M49.126 20.4277V38.6327H68.265V35.9228H52.4079V30.5493H65.3786V27.8163H52.4079V23.155H67.9312V20.4277H49.126Z" fill="black"/>
<path d="M98.3441 20.4277H94.8826L83.9961 38.6327H87.71L90.3412 34.122H102.86L105.475 38.6327H109.205L98.3441 20.4277ZM91.9541 31.3947L96.619 23.3548C97.1996 24.3594 100.67 30.338 101.281 31.3947H91.9541Z" fill="black"/>
<path d="M176.497 20C169.178 20 164.261 23.8738 164.261 29.641C164.261 36.1146 170.603 39.0648 176.497 39.0648C182.39 39.0648 188.724 36.1146 188.724 29.641C188.724 23.8738 183.809 20 176.497 20ZM176.497 36.3289C174.41 36.3289 167.602 35.8193 167.602 29.253C167.602 25.359 171.248 22.6375 176.497 22.6375C181.745 22.6375 185.386 25.359 185.386 29.253C185.386 34.476 180.794 36.3289 176.497 36.3289Z" fill="black"/>
<path d="M205.234 29.5541C205.234 34.1488 208.368 39.0562 217.162 39.0562C222.455 39.0562 226.065 37.4088 228.202 34.0156L228.592 33.3758L225.639 32.1598L225.448 32.4493C223.849 35.0232 221.125 36.3289 217.378 36.3289C211.947 36.3289 208.572 33.839 208.572 29.8321C208.572 25.1998 211.622 22.6375 217.162 22.6375C219.967 22.6375 223.613 23.2947 225.181 26.4302L225.355 26.7776L228.261 25.6196L228.04 25.1853C226.373 21.9398 222.301 20 217.134 20C209.795 20 205.234 23.6653 205.234 29.5541Z" fill="black"/>
<path d="M265.676 20.4277L256.842 28.0045H251.816V20.4277H248.534V38.6327H251.816V31.0618L256.994 31.0473L266.918 38.6327L271.782 38.6153L259.869 29.4405L270.026 20.4277H265.676Z" fill="black"/>
<path d="M286.341 25.6312C286.341 29.8002 291.718 30.2635 296.462 30.6427C300.296 30.9641 303.917 31.2652 303.917 33.3092C303.917 35.5385 300.19 36.3289 296.995 36.3289C291.138 36.3289 289.281 34.2328 288.173 32.9676L287.943 32.6317L287.906 32.6607L287.875 32.6259L287.595 32.8981L285.309 34.5744L285.704 34.9537C287.41 36.5924 289.99 39.0648 296.728 39.0648C304.498 39.0648 307.264 36.0915 307.264 33.3092C307.264 28.6422 301.707 28.205 296.804 27.8083C293.157 27.5188 289.693 27.2496 289.693 25.2837C289.693 22.9676 293.755 22.6259 296.175 22.6259C301.202 22.6259 303.096 24.4904 304.004 25.388L304.392 25.7701L304.672 25.5732L306.843 24.0706L306.535 23.6972C305.8 22.8402 302.927 20 296.22 20C289.847 20 286.341 22.0006 286.341 25.6312Z" fill="black"/>
</g>
<defs>
<clipPath id="clip0_2890_119278">
<rect width="297.5" height="20" fill="white" transform="translate(10 20)"/>
</clipPath>
</defs>
</svg>
